ffmpeg started on 2025-06-07 at 16:09:34
Report written to "D:\Convert\FFMetrics\reports\ssim_report-6.txt"
Log level: 32
Command line:
ffmpeg -hide_banner -nostdin -i "G:\\\xc0\xed\xe8\xec\xe5\\\xce\xed\xe3\xee\xe8\xed\xe3\xe8\\!_36_\xce\xf1\xe5\xed\xfc_2024\\DreamCast\\\xd6\xe5\xeb\xe8\xf2\xe5\xeb\xfc, \xea\xee\xf2\xee\xf0\xee\xe3\xee \xe8\xf1\xea\xeb\xfe\xf7\xe8\xeb\xe8 \xe8\xe7 \xe3\xf0\xf3\xef\xef\xfb, \xee\xea\xe0\xe7\xe0\xeb\xf1\xff \xf1\xe8\xeb\xfc\xed\xe5\xe9\xf8\xe8\xec!\\[DC] sonochiyushi - 07_Telegram_HEVC.mkv" -i "G:\\\xc0\xed\xe8\xec\xe5\\\xce\xed\xe3\xee\xe8\xed\xe3\xe8\\!_36_\xce\xf1\xe5\xed\xfc_2024\\DreamCast\\\xd6\xe5\xeb\xe8\xf2\xe5\xeb\xfc, \xea\xee\xf2\xee\xf0\xee\xe3\xee \xe8\xf1\xea\xeb\xfe\xf7\xe8\xeb\xe8 \xe8\xe7 \xe3\xf0\xf3\xef\xef\xfb, \xee\xea\xe0\xe7\xe0\xeb\xf1\xff \xf1\xe8\xeb\xfc\xed\xe5\xe9\xf8\xe8\xec!\\[DC] sonochiyushi - 07_Telegram.mp4" -lavfi "[0:v]settb=AVTB,setpts=PTS-STARTPTS,format=pix_fmts=yuv420p10,fps=24000/1001,scale=1920:1080:flags=bicubic[main];[1:v]settb=AVTB,setpts=PTS-STARTPTS,format=pix_fmts=yuv420p,fps=24000/1001,scale=1920:1080:flags=bicubic[ref];[main][ref]ssim=eof_action=endall:stats_file='D\\:/Convert/FFMetrics/logs/ssim_logfile-6.txt'" -f null -
Input #0, matroska,webm, from 'G:\Аниме\Онгоинги\!_36_Осень_2024\DreamCast\Целитель, которого исключили из группы, оказался сильнейшим!\[DC] sonochiyushi - 07_Telegram_HEVC.mkv':
  Metadata:
    COMPATIBLE_BRANDS: isomiso2avc1mp41
    MAJOR_BRAND     : isom
    MINOR_VERSION   : 512
    ENCODER         : Lavf61.7.100
  Duration: 00:23:30.65, start: -0.021000, bitrate: 810 kb/s
  Stream #0:0: Video: hevc (Main 10), yuv420p10le(tv, bt709, progressive), 1920x1080 [SAR 1:1 DAR 16:9], 23.98 fps, 23.98 tbr, 1k tbn (default)
      Metadata:
        HANDLER_NAME    : VideoHandler
        VENDOR_ID       : [0][0][0][0]
        ENCODER         : Lavc61.19.100 libx265
        BPS             : 614398
        DURATION        : 00:23:30.533708333
        NUMBER_OF_FRAMES: 33819
        NUMBER_OF_BYTES : 108328630
        _STATISTICS_WRITING_APP: mkvpropedit v66.0.0 ('Josie') 64-bit
        _STATISTICS_WRITING_DATE_UTC: 2025-06-05 08:27:45
        _STATISTICS_TAGS: BPS DURATION NUMBER_OF_FRAMES NUMBER_OF_BYTES
  Stream #0:1: Audio: aac (LC), 48000 Hz, stereo, fltp (default)
      Metadata:
        HANDLER_NAME    : SoundHandler
        VENDOR_ID       : [0][0][0][0]
        ENCODER         : Lavc61.19.100 aac
        BPS             : 191665
        DURATION        : 00:23:30.645000000
        NUMBER_OF_FRAMES: 66125
        NUMBER_OF_BYTES : 33796566
        _STATISTICS_WRITING_APP: mkvpropedit v66.0.0 ('Josie') 64-bit
        _STATISTICS_WRITING_DATE_UTC: 2025-06-05 08:27:45
        _STATISTICS_TAGS: BPS DURATION NUMBER_OF_FRAMES NUMBER_OF_BYTES
Input #1, mov,mp4,m4a,3gp,3g2,mj2, from 'G:\Аниме\Онгоинги\!_36_Осень_2024\DreamCast\Целитель, которого исключили из группы, оказался сильнейшим!\[DC] sonochiyushi - 07_Telegram.mp4':
  Metadata:
    major_brand     : isom
    minor_version   : 512
    compatible_brands: isomiso2avc1mp41
    encoder         : Lavf61.1.100
  Duration: 00:23:30.60, start: 0.000000, bitrate: 3475 kb/s
  Stream #1:0[0x1](und): Video: h264 (High) (avc1 / 0x31637661), yuv420p(tv, bt709, progressive), 1920x1080 [SAR 1:1 DAR 16:9], 3327 kb/s, 23.98 fps, 23.98 tbr, 24k tbn (default)
      Metadata:
        handler_name    : VideoHandler
        vendor_id       : [0][0][0][0]
        encoder         : Lavc61.3.100 h264_qsv
  Stream #1:1[0x2](und): Audio: aac (HE-AACv2) (mp4a / 0x6134706D), 48000 Hz, stereo, fltp, 144 kb/s (default)
      Metadata:
        handler_name    : SoundHandler
        vendor_id       : [0][0][0][0]
Stream mapping:
  Stream #0:0 (hevc) -> settb:default
  Stream #1:0 (h264) -> settb:default
  ssim:default -> Stream #0:0 (wrapped_avframe)
  Stream #0:1 -> #0:1 (aac (native) -> pcm_s16le (native))
Output #0, null, to 'pipe:':
  Metadata:
    COMPATIBLE_BRANDS: isomiso2avc1mp41
    MAJOR_BRAND     : isom
    MINOR_VERSION   : 512
    encoder         : Lavf61.7.100
  Stream #0:0: Video: wrapped_avframe, yuv420p10le(tv, bt709, progressive), 1920x1080 [SAR 1:1 DAR 16:9], q=2-31, 200 kb/s, 23.98 fps, 23.98 tbn
      Metadata:
        encoder         : Lavc61.19.100 wrapped_avframe
  Stream #0:1: Audio: pcm_s16le, 48000 Hz, stereo, s16, 1536 kb/s (default)
      Metadata:
        HANDLER_NAME    : SoundHandler
        VENDOR_ID       : [0][0][0][0]
        _STATISTICS_TAGS: BPS DURATION NUMBER_OF_FRAMES NUMBER_OF_BYTES
        BPS             : 191665
        DURATION        : 00:23:30.645000000
        NUMBER_OF_FRAMES: 66125
        NUMBER_OF_BYTES : 33796566
        _STATISTICS_WRITING_APP: mkvpropedit v66.0.0 ('Josie') 64-bit
        _STATISTICS_WRITING_DATE_UTC: 2025-06-05 08:27:45
        encoder         : Lavc61.19.100 pcm_s16le
frame=  185 fps=0.0 q=-0.0 size=N/A time=00:00:07.71 bitrate=N/A speed=  15x    frame=  454 fps=436 q=-0.0 size=N/A time=00:00:18.93 bitrate=N/A speed=18.2x    frame=  675 fps=435 q=-0.0 size=N/A time=00:00:28.15 bitrate=N/A speed=18.2x    frame=  937 fps=451 q=-0.0 size=N/A time=00:00:39.08 bitrate=N/A speed=18.8x    frame= 1199 fps=464 q=-0.0 size=N/A time=00:00:50.00 bitrate=N/A speed=19.3x    frame= 1459 fps=471 q=-0.0 size=N/A time=00:01:00.85 bitrate=N/A speed=19.7x    frame= 1653 fps=456 q=-0.0 size=N/A time=00:01:08.94 bitrate=N/A speed=  19x    frame= 1884 fps=456 q=-0.0 size=N/A time=00:01:18.57 bitrate=N/A speed=  19x    frame= 2121 fps=457 q=-0.0 size=N/A time=00:01:28.46 bitrate=N/A speed=19.1x    frame= 2379 fps=461 q=-0.0 size=N/A time=00:01:39.22 bitrate=N/A speed=19.2x    frame= 2638 fps=464 q=-0.0 size=N/A time=00:01:50.02 bitrate=N/A speed=19.3x    frame= 2863 fps=461 q=-0.0 size=N/A time=00:01:59.41 bitrate=N/A speed=19.2x    frame= 3065 fps=456 q=-0.0 size=N/A time=00:02:07.83 bitrate=N/A speed=  19x    frame= 3306 fps=456 q=-0.0 size=N/A time=00:02:17.88 bitrate=N/A speed=  19x    frame= 3511 fps=453 q=-0.0 size=N/A time=00:02:26.43 bitrate=N/A speed=18.9x    frame= 3719 fps=450 q=-0.0 size=N/A time=00:02:35.11 bitrate=N/A speed=18.8x    frame= 3925 fps=446 q=-0.0 size=N/A time=00:02:43.70 bitrate=N/A speed=18.6x    frame= 4118 fps=443 q=-0.0 size=N/A time=00:02:51.75 bitrate=N/A speed=18.5x    frame= 4327 fps=441 q=-0.0 size=N/A time=00:03:00.47 bitrate=N/A speed=18.4x    frame= 4528 fps=438 q=-0.0 size=N/A time=00:03:08.85 bitrate=N/A speed=18.3x    frame= 4715 fps=434 q=-0.0 size=N/A time=00:03:16.65 bitrate=N/A speed=18.1x    frame= 4961 fps=436 q=-0.0 size=N/A time=00:03:26.91 bitrate=N/A speed=18.2x    frame= 5193 fps=437 q=-0.0 size=N/A time=00:03:36.59 bitrate=N/A speed=18.2x    frame= 5418 fps=437 q=-0.0 size=N/A time=00:03:45.97 bitrate=N/A speed=18.2x    frame= 5658 fps=438 q=-0.0 size=N/A time=00:03:55.98 bitrate=N/A speed=18.3x    frame= 5869 fps=437 q=-0.0 size=N/A time=00:04:04.78 bitrate=N/A speed=18.2x    frame= 6056 fps=434 q=-0.0 size=N/A time=00:04:12.58 bitrate=N/A speed=18.1x    frame= 6306 fps=436 q=-0.0 size=N/A time=00:04:23.01 bitrate=N/A speed=18.2x    frame= 6592 fps=440 q=-0.0 size=N/A time=00:04:34.94 bitrate=N/A speed=18.4x    frame= 6875 fps=444 q=-0.0 size=N/A time=00:04:46.74 bitrate=N/A speed=18.5x    frame= 7168 fps=448 q=-0.0 size=N/A time=00:04:58.96 bitrate=N/A speed=18.7x    frame= 7430 fps=450 q=-0.0 size=N/A time=00:05:09.89 bitrate=N/A speed=18.8x    frame= 7709 fps=452 q=-0.0 size=N/A time=00:05:21.52 bitrate=N/A speed=18.9x    frame= 7973 fps=454 q=-0.0 size=N/A time=00:05:32.54 bitrate=N/A speed=18.9x    frame= 8208 fps=454 q=-0.0 size=N/A time=00:05:42.34 bitrate=N/A speed=18.9x    frame= 8485 fps=456 q=-0.0 size=N/A time=00:05:53.89 bitrate=N/A speed=  19x    frame= 8734 fps=457 q=-0.0 size=N/A time=00:06:04.28 bitrate=N/A speed=19.1x    frame= 9004 fps=459 q=-0.0 size=N/A time=00:06:15.54 bitrate=N/A speed=19.1x    frame= 9282 fps=461 q=-0.0 size=N/A time=00:06:27.13 bitrate=N/A speed=19.2x    frame= 9524 fps=461 q=-0.0 size=N/A time=00:06:37.23 bitrate=N/A speed=19.2x    frame= 9791 fps=462 q=-0.0 size=N/A time=00:06:48.36 bitrate=N/A speed=19.3x    frame=10069 fps=464 q=-0.0 size=N/A time=00:06:59.96 bitrate=N/A speed=19.4x    frame=10303 fps=464 q=-0.0 size=N/A time=00:07:09.72 bitrate=N/A speed=19.3x    frame=10569 fps=465 q=-0.0 size=N/A time=00:07:20.81 bitrate=N/A speed=19.4x    frame=10829 fps=466 q=-0.0 size=N/A time=00:07:31.65 bitrate=N/A speed=19.4x    frame=11083 fps=466 q=-0.0 size=N/A time=00:07:42.25 bitrate=N/A speed=19.5x    frame=11351 fps=468 q=-0.0 size=N/A time=00:07:53.43 bitrate=N/A speed=19.5x    frame=11620 fps=469 q=-0.0 size=N/A time=00:08:04.65 bitrate=N/A speed=19.6x    frame=11845 fps=468 q=-0.0 size=N/A time=00:08:14.03 bitrate=N/A speed=19.5x    frame=12073 fps=468 q=-0.0 size=N/A time=00:08:23.54 bitrate=N/A speed=19.5x    frame=12348 fps=469 q=-0.0 size=N/A time=00:08:35.01 bitrate=N/A speed=19.6x    frame=12620 fps=470 q=-0.0 size=N/A time=00:08:46.35 bitrate=N/A speed=19.6x    frame=12875 fps=470 q=-0.0 size=N/A time=00:08:56.99 bitrate=N/A speed=19.6x    frame=13138 fps=471 q=-0.0 size=N/A time=00:09:07.96 bitrate=N/A speed=19.7x    frame=13446 fps=473 q=-0.0 size=N/A time=00:09:20.81 bitrate=N/A speed=19.7x    frame=13715 fps=474 q=-0.0 size=N/A time=00:09:32.02 bitrate=N/A speed=19.8x    frame=14013 fps=476 q=-0.0 size=N/A time=00:09:44.45 bitrate=N/A speed=19.9x    frame=14307 fps=478 q=-0.0 size=N/A time=00:09:56.72 bitrate=N/A speed=19.9x    frame=14587 fps=479 q=-0.0 size=N/A time=00:10:08.39 bitrate=N/A speed=  20x    frame=14856 fps=480 q=-0.0 size=N/A time=00:10:19.61 bitrate=N/A speed=  20x    frame=15136 fps=481 q=-0.0 size=N/A time=00:10:31.29 bitrate=N/A speed=  20x    frame=15420 fps=482 q=-0.0 size=N/A time=00:10:43.14 bitrate=N/A speed=20.1x    frame=15680 fps=482 q=-0.0 size=N/A time=00:10:53.98 bitrate=N/A speed=20.1x    frame=15964 fps=483 q=-0.0 size=N/A time=00:11:05.83 bitrate=N/A speed=20.1x    frame=16247 fps=484 q=-0.0 size=N/A time=00:11:17.63 bitrate=N/A speed=20.2x    frame=16525 fps=485 q=-0.0 size=N/A time=00:11:29.23 bitrate=N/A speed=20.2x    frame=16810 fps=486 q=-0.0 size=N/A time=00:11:41.11 bitrate=N/A speed=20.3x    frame=17085 fps=487 q=-0.0 size=N/A time=00:11:52.58 bitrate=N/A speed=20.3x    frame=17387 fps=488 q=-0.0 size=N/A time=00:12:05.18 bitrate=N/A speed=20.4x    frame=17650 fps=488 q=-0.0 size=N/A time=00:12:16.15 bitrate=N/A speed=20.4x    frame=17884 fps=488 q=-0.0 size=N/A time=00:12:25.91 bitrate=N/A speed=20.4x    frame=18162 fps=489 q=-0.0 size=N/A time=00:12:37.50 bitrate=N/A speed=20.4x    frame=18417 fps=489 q=-0.0 size=N/A time=00:12:48.14 bitrate=N/A speed=20.4x    frame=18661 fps=489 q=-0.0 size=N/A time=00:12:58.31 bitrate=N/A speed=20.4x    frame=18919 fps=489 q=-0.0 size=N/A time=00:13:09.07 bitrate=N/A speed=20.4x    frame=19187 fps=489 q=-0.0 size=N/A time=00:13:20.25 bitrate=N/A speed=20.4x    frame=19467 fps=490 q=-0.0 size=N/A time=00:13:31.93 bitrate=N/A speed=20.4x    frame=19738 fps=490 q=-0.0 size=N/A time=00:13:43.23 bitrate=N/A speed=20.4x    frame=20005 fps=491 q=-0.0 size=N/A time=00:13:54.37 bitrate=N/A speed=20.5x    frame=20289 fps=491 q=-0.0 size=N/A time=00:14:06.22 bitrate=N/A speed=20.5x    frame=20565 fps=492 q=-0.0 size=N/A time=00:14:17.73 bitrate=N/A speed=20.5x    frame=20840 fps=492 q=-0.0 size=N/A time=00:14:29.20 bitrate=N/A speed=20.5x    frame=21114 fps=493 q=-0.0 size=N/A time=00:14:40.62 bitrate=N/A speed=20.6x    frame=21379 fps=493 q=-0.0 size=N/A time=00:14:51.68 bitrate=N/A speed=20.6x    frame=21632 fps=493 q=-0.0 size=N/A time=00:15:02.23 bitrate=N/A speed=20.6x    frame=21887 fps=493 q=-0.0 size=N/A time=00:15:12.87 bitrate=N/A speed=20.6x    frame=22170 fps=494 q=-0.0 size=N/A time=00:15:24.67 bitrate=N/A speed=20.6x    frame=22440 fps=494 q=-0.0 size=N/A time=00:15:35.93 bitrate=N/A speed=20.6x    frame=22714 fps=494 q=-0.0 size=N/A time=00:15:47.36 bitrate=N/A speed=20.6x    frame=22982 fps=495 q=-0.0 size=N/A time=00:15:58.54 bitrate=N/A speed=20.6x    frame=23256 fps=495 q=-0.0 size=N/A time=00:16:09.96 bitrate=N/A speed=20.7x    frame=23511 fps=495 q=-0.0 size=N/A time=00:16:20.60 bitrate=N/A speed=20.7x    frame=23779 fps=495 q=-0.0 size=N/A time=00:16:31.78 bitrate=N/A speed=20.7x    frame=24059 fps=496 q=-0.0 size=N/A time=00:16:43.46 bitrate=N/A speed=20.7x    frame=24339 fps=496 q=-0.0 size=N/A time=00:16:55.13 bitrate=N/A speed=20.7x    frame=24587 fps=496 q=-0.0 size=N/A time=00:17:05.48 bitrate=N/A speed=20.7x    frame=24865 fps=497 q=-0.0 size=N/A time=00:17:17.07 bitrate=N/A speed=20.7x    frame=25152 fps=497 q=-0.0 size=N/A time=00:17:29.04 bitrate=N/A speed=20.7x    frame=25430 fps=498 q=-0.0 size=N/A time=00:17:40.64 bitrate=N/A speed=20.8x    frame=25736 fps=499 q=-0.0 size=N/A time=00:17:53.40 bitrate=N/A speed=20.8x    frame=26034 fps=499 q=-0.0 size=N/A time=00:18:05.83 bitrate=N/A speed=20.8x    frame=26298 fps=499 q=-0.0 size=N/A time=00:18:16.84 bitrate=N/A speed=20.8x    frame=26555 fps=499 q=-0.0 size=N/A time=00:18:27.56 bitrate=N/A speed=20.8x    frame=26831 fps=500 q=-0.0 size=N/A time=00:18:39.07 bitrate=N/A speed=20.8x    frame=27124 fps=500 q=-0.0 size=N/A time=00:18:51.29 bitrate=N/A speed=20.9x    frame=27377 fps=500 q=-0.0 size=N/A time=00:19:01.84 bitrate=N/A speed=20.9x    frame=27652 fps=501 q=-0.0 size=N/A time=00:19:13.31 bitrate=N/A speed=20.9x    frame=27948 fps=501 q=-0.0 size=N/A time=00:19:25.66 bitrate=N/A speed=20.9x    frame=28219 fps=502 q=-0.0 size=N/A time=00:19:36.96 bitrate=N/A speed=20.9x    frame=28503 fps=502 q=-0.0 size=N/A time=00:19:48.81 bitrate=N/A speed=20.9x    frame=28771 fps=502 q=-0.0 size=N/A time=00:19:59.99 bitrate=N/A speed=20.9x    frame=29057 fps=503 q=-0.0 size=N/A time=00:20:11.91 bitrate=N/A speed=  21x    frame=29333 fps=503 q=-0.0 size=N/A time=00:20:23.43 bitrate=N/A speed=  21x    frame=29618 fps=503 q=-0.0 size=N/A time=00:20:35.31 bitrate=N/A speed=  21x    frame=29915 fps=504 q=-0.0 size=N/A time=00:20:47.70 bitrate=N/A speed=  21x    frame=30188 fps=504 q=-0.0 size=N/A time=00:20:59.09 bitrate=N/A speed=  21x    frame=30482 fps=505 q=-0.0 size=N/A time=00:21:11.35 bitrate=N/A speed=21.1x    frame=30701 fps=504 q=-0.0 size=N/A time=00:21:20.48 bitrate=N/A speed=  21x    frame=30979 fps=504 q=-0.0 size=N/A time=00:21:32.08 bitrate=N/A speed=  21x    frame=31251 fps=505 q=-0.0 size=N/A time=00:21:43.42 bitrate=N/A speed=  21x    frame=31499 fps=504 q=-0.0 size=N/A time=00:21:53.77 bitrate=N/A speed=  21x    frame=31756 fps=504 q=-0.0 size=N/A time=00:22:04.48 bitrate=N/A speed=  21x    frame=31987 fps=504 q=-0.0 size=N/A time=00:22:14.12 bitrate=N/A speed=  21x    frame=32258 fps=504 q=-0.0 size=N/A time=00:22:25.42 bitrate=N/A speed=  21x    frame=32523 fps=504 q=-0.0 size=N/A time=00:22:36.48 bitrate=N/A speed=  21x    frame=32729 fps=503 q=-0.0 size=N/A time=00:22:45.07 bitrate=N/A speed=  21x    frame=32974 fps=503 q=-0.0 size=N/A time=00:22:55.29 bitrate=N/A speed=  21x    frame=33207 fps=503 q=-0.0 size=N/A time=00:23:05.00 bitrate=N/A speed=  21x    frame=33412 fps=502 q=-0.0 size=N/A time=00:23:13.55 bitrate=N/A speed=20.9x    frame=33690 fps=502 q=-0.0 size=N/A time=00:23:25.15 bitrate=N/A speed=20.9x    [Parsed_ssim_10 @ 0000017d24bcd000] SSIM Y:0.995530 (23.496580) U:0.994584 (22.663245) V:0.994761 (22.807143) All:0.995244 (23.227455)
[out#0/null @ 0000017d2529ba00] video:14532KiB audio:264500KiB subtitle:0KiB other streams:0KiB global headers:0KiB muxing overhead: unknown
frame=33819 fps=502 q=-0.0 Lsize=N/A time=00:23:30.53 bitrate=N/A speed=  21x    
